<svg width="12" height="12" viewBox="0 0 12 12" fill="none" xmlns="http://www.w3.org/2000/svg">
<path d="M10.7988 5.26172L11.3574 5.8457C11.4759 5.96419 11.5352 6.10807 11.5352 6.27734C11.5352 6.44661 11.4759 6.59049 11.3574 6.70898L6.43164 11.6348C6.31315 11.7533 6.16927 11.8125 6 11.8125C5.83073 11.8125 5.68685 11.7533 5.56836 11.6348L0.642578 6.70898C0.524089 6.59049 0.464844 6.44661 0.464844 6.27734C0.464844 6.10807 0.524089 5.96419 0.642578 5.8457L1.20117 5.26172C1.31966 5.14323 1.46354 5.09245 1.63281 5.10938C1.80208 5.10938 1.94596 5.16862 2.06445 5.28711L4.98438 8.33398V1.04688C4.98438 0.877604 5.04362 0.733724 5.16211 0.615234C5.2806 0.496745 5.42448 0.4375 5.59375 0.4375H6.40625C6.57552 0.4375 6.7194 0.496745 6.83789 0.615234C6.95638 0.733724 7.01562 0.877604 7.01562 1.04688V8.33398L9.93555 5.28711C10.054 5.16862 10.1979 5.10938 10.3672 5.10938C10.5365 5.09245 10.6803 5.14323 10.7988 5.26172Z" fill="white"/>
</svg>
